<?xml version="1.0" encoding="UTF-8" standalone="no"?>
<!DOCTYPE svg PUBLIC "-//W3C//DTD SVG 1.1//EN" "http://www.w3.org/Graphics/SVG/1.1/DTD/svg11.dtd">
<svg width="100%" height="100%" viewBox="0 0 1024 1024" version="1.1" xmlns="http://www.w3.org/2000/svg" xmlns:xlink="http://www.w3.org/1999/xlink" xml:space="preserve" xmlns:serif="http://www.serif.com/" style="fill-rule:evenodd;clip-rule:evenodd;">
    <g id="Icon">
        <path d="M1024,230C1024,103.06 920.94,0 794,0L230,0C103.06,0 0,103.06 0,230L0,794C0,920.94 103.06,1024 230,1024L794,1024C920.94,1024 1024,920.94 1024,794L1024,230Z" style="fill:url(#_Linear1);"/>
        <g transform="matrix(1,0,0,1,0,-41)">
            <path d="M850,376C850,349.508 828.492,328 802,328L222,328C195.508,328 174,349.508 174,376L174,730C174,756.492 195.508,778 222,778L802,778C828.492,778 850,756.492 850,730L850,376Z" style="fill:none;stroke:white;stroke-width:52px;"/>
            <path d="M174,368L512,594L850,368" style="fill:none;fill-rule:nonzero;stroke:white;stroke-width:52px;stroke-linejoin:round;"/>
        </g>
    </g>
    <defs>
        <linearGradient id="_Linear1" x1="0" y1="0" x2="1" y2="0" gradientUnits="userSpaceOnUse" gradientTransform="matrix(1024,1024,-1024,1024,0,0)"><stop offset="0" style="stop-color:rgb(234,88,12);stop-opacity:1"/><stop offset="1" style="stop-color:rgb(245,158,11);stop-opacity:1"/></linearGradient>
    </defs>
</svg>
